<svg width="589" height="442" viewBox="0 0 589 442" fill="none" xmlns="http://www.w3.org/2000/svg">
<path d="M71 282C-25 315.6 -2.33332 398 21 435V442H561C574.333 402 597.6 314 584 282C570.4 250 534.333 232 518 227C480.667 209 396.2 161.6 357 116C308 59 143 120 124 133C105 146 191 240 71 282Z" fill="#DEE1E8"/>
<path d="M200 176.5H196L221 241.5H271V238H224L200 176.5Z" fill="#8495A0"/>
<path d="M195.5 176L124.5 175L149 243L221.5 242L195.5 176Z" fill="#ABB5BA"/>
<path d="M427 440L424 382.5H469.5L467 440H427Z" fill="#C4C4C4"/>
<path d="M466.5 350.5C473.7 362.5 457.833 368.833 448 372C442.5 374.333 430.5 371.4 430.5 363C430.5 352.5 431.5 354 427.5 340.5C424.3 329.7 430.833 319.333 434.5 315.5C432.167 313 427.5 303.7 427.5 286.5C427.5 265 457.5 267.5 451 274.5C444.5 281.5 455 293.5 457.5 305.5C460 317.5 467.5 317.5 464 323C460.5 328.5 457.5 335.5 466.5 350.5Z" fill="#0096FF"/>
<path d="M439.5 281C441.9 298.2 444.833 356.167 446 383H442C440.167 341.833 437.1 263.8 439.5 281Z" fill="#0062A6"/>
<rect x="377" y="109" width="105" height="63" rx="4" fill="#0096FF"/>
<path d="M422.534 162.838C420.007 162.124 418.101 160.946 416.816 159.304C415.546 157.677 414.91 155.521 414.91 152.837V148.576C414.91 145.107 413.397 143.372 410.37 143.372V140.267C413.397 140.267 414.91 138.54 414.91 135.085V130.631C414.939 128.018 415.574 125.913 416.816 124.314C418.072 122.7 419.978 121.53 422.534 120.802L423.347 123.264C420.364 124.221 418.872 126.712 418.872 130.738V135.064C418.872 138.304 417.68 140.56 415.296 141.83C417.68 143.115 418.872 145.392 418.872 148.661V153.073C418.915 156.999 420.407 159.433 423.347 160.375L422.534 162.838ZM435.147 160.375C438.045 159.447 439.544 157.084 439.644 153.287V148.576C439.644 145.278 440.936 143.03 443.519 141.83C440.936 140.66 439.644 138.411 439.644 135.085V130.738C439.644 126.712 438.152 124.221 435.168 123.264L435.982 120.802C438.509 121.516 440.407 122.679 441.678 124.292C442.948 125.891 443.591 128.011 443.605 130.652V135.149C443.605 138.561 445.118 140.267 448.145 140.267V143.372C445.118 143.372 443.605 145.107 443.605 148.576V152.901C443.605 155.585 442.956 157.734 441.656 159.347C440.372 160.96 438.48 162.124 435.982 162.838L435.147 160.375Z" fill="white"/>
<rect x="275" width="107" height="65" rx="7" fill="#FD9605"/>
<path d="M302.653 35.2093L316.059 40.6271V44.8243L298.542 36.7083V33.5819L316.059 25.4874V29.6845L302.653 35.2093ZM323.104 51.6768H319.699L332.719 17.8211H336.102L323.104 51.6768ZM354.411 35.0809L340.256 29.5346V25.4659L358.544 33.5605V36.6869L340.256 44.8028V40.6913L354.411 35.0809Z" fill="white"/>
<path d="M314 163.5L316 151C316.5 149.5 317.2 146.8 316 148C314.8 149.2 307.833 148.5 304.5 148C289.7 135.6 291.333 112.833 294 103L336 96V136.5L339 163.5H314Z" fill="#FFB181"/>
<path d="M356 226.5C356 226.5 324 212 321.5 213L279.5 198C278.133 200.538 274.5 206 274.5 206C259.833 196.5 229.8 177.2 227 176C223.5 174.5 219.5 175 219.5 185C219.5 193 230.167 195.333 235.5 195.5C237.9 200.3 255.833 221.167 264.5 231L256 232.5C238.8 221.3 232.667 236.167 232 243H258.5H271.5C292 243.333 335 243.8 343 243C351 242.2 355.333 231.667 356 226.5Z" fill="#FFB181"/>
<path d="M279 199C285.833 179.5 302.6 142.7 315 151.5C314.5 159 317.8 169.5 335 151.5C343.167 149.5 360.6 149.5 365 165.5C370.5 185.5 383 271.5 378 281C360.847 271.956 322.482 255.5 298.284 257.35C296.598 257.604 294.996 257.821 293.5 258C295.02 257.691 296.618 257.477 298.284 257.35C320.085 254.06 355.871 244.45 355.5 227C355.5 227 325 211.5 321.5 213.5C318 215.5 295.5 236 291 227C286.5 218 292 214 291 211C290 208 279 199 279 199Z" fill="#0096FF"/>
<path d="M298.5 398.5C300.5 405.3 283.333 407.667 274.5 408C255.3 386.8 241.833 333.5 237.5 309.5C232.7 306.7 233.833 375 235 409.5C230.6 416.3 215.167 411.333 208 408C202.5 384.5 196 302.5 201 289.5C206 276.5 249.5 264.5 292.5 257C326.9 251 364 269.833 377.5 280.5C378.5 280.333 377.2 283.1 370 291.5C361 302 282 305 277.5 315.5C273 326 296 390 298.5 398.5Z" fill="#2A3541"/>
<path d="M344.5 104.5C345.7 119.3 339 132 335.5 136.5C337 124 337 111.5 331 116.5C325 121.5 329.5 123 326.5 125C323.5 127 323.5 120 323.5 116V116C323.5 112.8 320.667 111.667 319.5 110.5C323.1 102.1 311.833 100.667 305.5 102C297.667 105 281.9 107.1 281.5 91.5C281.1 75.9 295 79.6666 302 83.5C306.8 79.1 313 81.6667 315.5 83.5C324.7 78.3 328.667 83.3333 329.5 86.5C344 87.5 338 96 340 97C341.6 97.8 343.667 102.333 344.5 104.5Z" fill="#2A3541"/>
<path d="M211.5 417.5C205.5 415.1 190.333 427.167 183.5 433.5C180 444 198 440 211.5 440.5C225 441 238 440 239 433.5C240 427 234.5 413.5 233.5 417.5C232.5 421.5 219 420.5 211.5 417.5Z" fill="#FD9605"/>
<path d="M302 411.5C295.6 414.7 285.667 413.833 281.5 413C249 427 256.5 439.5 260 440C263.5 440.5 308.5 431 311 430C313.5 429 310 407.5 302 411.5Z" fill="#FD9605"/>
<rect x="85" y="256" width="12" height="185" fill="#C4C4C4"/>
<rect x="147" y="256" width="12" height="185" fill="#C4C4C4"/>
<rect x="345" y="256" width="12" height="185" fill="#C4C4C4"/>
<rect x="408" y="256" width="12" height="185" fill="#C4C4C4"/>
<rect x="76" y="242" width="366" height="15" rx="7.5" fill="#C4C4C4"/>
<rect x="117" y="25" width="131" height="121" rx="4" fill="#112B46"/>
<rect x="177" y="84" width="33" height="2" rx="1" fill="#C4C4C4"/>
<rect x="206" y="72" width="17" height="2" rx="1" fill="white"/>
<rect x="146" y="122" width="17" height="2" rx="1" fill="white"/>
<rect x="127" y="120" width="2" height="7" rx="1" fill="white"/>
<rect x="127" y="93" width="2" height="7" rx="1" fill="white"/>
<rect x="127" y="105" width="2" height="7" rx="1" fill="white"/>
<rect x="127" y="44" width="2" height="7" rx="1" fill="white"/>
<rect x="127" y="56" width="2" height="7" rx="1" fill="white"/>
<rect x="127" y="69" width="2" height="7" rx="1" fill="white"/>
<rect x="127" y="81" width="2" height="7" rx="1" fill="white"/>
<rect x="139" y="46" width="58" height="2" rx="1" fill="#FF8578"/>
<rect x="157" y="58" width="58" height="2" rx="1" fill="#C4C4C4"/>
<rect x="145" y="95" width="58" height="2" rx="1" fill="#FF8578"/>
<rect x="168" y="108" width="58" height="2" rx="1" fill="#FD9605"/>
<rect x="137" y="58" width="17" height="2" rx="1" fill="#0096FF"/>
<rect x="140" y="71" width="40" height="2" rx="1" fill="#0096FF"/>
</svg>
