<svg width="650" height="569" viewBox="0 0 650 569" fill="none" xmlns="http://www.w3.org/2000/svg">
<path d="M649.823 546C585.823 587.6 192.489 563.333 3.8228 546C-10.5772 525.2 19.1561 524 35.8228 526C-7.3772 504.242 79.1561 411.601 127.823 368C-28.9772 185.6 106.489 124 193.823 116C269.823 132 435.023 159.6 487.823 142C553.823 120 663.823 234 619.823 318C575.823 402 569.823 520 599.823 526C623.823 530.8 643.156 541.333 649.823 546Z" fill="#DEE1E8"/>
<rect x="186" width="297" height="538" rx="26" fill="#2A3541"/>
<rect x="202" y="17" width="267" height="502" rx="26" fill="#FFF9FF"/>
<path d="M202 40C202 27.2975 212.297 17 225 17H446C458.703 17 469 27.2975 469 40V56H202V40Z" fill="#DEE1E8"/>
<rect x="217" y="163" width="227" height="68" rx="9" fill="#FD9605"/>
<rect x="217" y="250" width="199" height="68" rx="9" fill="#C4C4C4"/>
<rect x="217" y="335" width="227" height="68" rx="9" fill="#C4C4C4"/>
<path d="M298.581 118H294.448L278.752 93.9734V118H274.619V86.8211H278.752L294.491 110.955V86.8211H298.581V118ZM323.507 103.588H309.995V114.638H325.692V118H305.884V86.8211H325.477V90.2045H309.995V100.226H323.507V103.588ZM337.533 108.171L338.133 112.282L339.011 108.578L345.178 86.8211H348.647L354.665 108.578L355.521 112.347L356.185 108.15L361.025 86.8211H365.158L357.598 118H353.851L347.427 95.2797L346.934 92.9027L346.442 95.2797L339.782 118H336.035L328.497 86.8211H332.608L337.533 108.171ZM378.927 104.102C375.401 103.089 372.831 101.847 371.218 100.376C369.619 98.8915 368.819 97.0642 368.819 94.8942C368.819 92.4387 369.797 90.4116 371.753 88.8126C373.723 87.1994 376.279 86.3928 379.419 86.3928C381.561 86.3928 383.467 86.8068 385.137 87.6349C386.822 88.4629 388.121 89.605 389.034 91.0611C389.962 92.5173 390.426 94.109 390.426 95.8364H386.293C386.293 93.952 385.694 92.4744 384.495 91.4037C383.295 90.3188 381.604 89.7763 379.419 89.7763C377.392 89.7763 375.808 90.226 374.665 91.1254C373.538 92.0105 372.974 93.2453 372.974 94.83C372.974 96.1006 373.509 97.1784 374.58 98.0635C375.665 98.9343 377.499 99.7338 380.083 100.462C382.681 101.19 384.709 101.997 386.165 102.882C387.635 103.753 388.72 104.773 389.42 105.944C390.134 107.115 390.49 108.492 390.49 110.077C390.49 112.604 389.505 114.631 387.535 116.158C385.565 117.672 382.931 118.428 379.634 118.428C377.492 118.428 375.493 118.021 373.638 117.208C371.782 116.38 370.347 115.252 369.333 113.824C368.334 112.397 367.834 110.776 367.834 108.963H371.967C371.967 110.848 372.66 112.34 374.044 113.439C375.444 114.524 377.307 115.066 379.634 115.066C381.803 115.066 383.467 114.624 384.623 113.739C385.779 112.853 386.358 111.647 386.358 110.12C386.358 108.592 385.822 107.414 384.751 106.586C383.681 105.744 381.739 104.916 378.927 104.102Z" fill="black"/>
<path d="M116 205C107.2 215.4 97.6667 208.167 95.5 203.5L97.5 196C94.7 194 89.6667 185.833 87.5 182C77.1 169.2 83.1667 167.667 87.5 168.5L90 149.5C93.5 150.333 102.409 151 113 151C124.5 151 122.5 158 122.5 160.5C122.5 162.5 125.5 166.667 127 168.5C136.6 171.7 129.667 178.833 125 182C125 186 118.333 193 115 196L116 205Z" fill="#FFB181"/>
<path d="M50 257C57.2 213 83.6667 202.333 96 202.5C107.2 212.1 113.667 206.5 115.5 202.5C120.667 205 131.9 210.1 135.5 210.5C140 211 158 238.5 162.5 251.5C166.1 261.9 155.333 274.833 149.5 280L148 363.5C125.2 379.9 82.1667 368.333 63.5 360.5V282C50 273 54 262.5 50 257Z" fill="#0096FF"/>
<path d="M221 215.5V221C203.4 229 213.667 238 221 241.5L221.5 244C228.333 243.833 242.2 243.5 243 243.5C243.8 243.5 243.333 224.833 243 215.5H221Z" fill="#0096FF"/>
<path d="M172 264C164.4 270.4 162.833 264 163 260L150.5 279.5C155.5 291.5 161 293 168.5 291.5C174.5 290.3 198.667 261.333 210 247C214.5 247 214.5 242.5 219.5 240C224.5 237.5 222 226 218.5 222.5C215.7 219.7 213 225 212 228C212.833 225.167 213.4 220.1 209 222.5C204.6 224.9 203.833 235.5 204 240.5C196.5 245.667 179.6 257.6 172 264Z" fill="#FFB181"/>
<path d="M63.5 280L51.5 260.5C43.1 270.5 39.3333 323.667 38.5 349C29.5 365.5 35.5 379.5 38.5 380C40.9 380.4 42.1667 365.5 42.5 358C43.3333 362.167 45.5 369.7 47.5 366.5C50 362.5 51.5 346.5 50 343C48.8 340.2 58.5 299.833 63.5 280Z" fill="#FFB181"/>
<path d="M66.5 517L58 509L48.5 520L56.5 527L66.5 517Z" fill="#FFB181"/>
<path d="M62 523C56 523 54 515 51 515C48 515 45.5 518.5 44 521.25C42.5 524 38.9999 524 37 527.5C35 531 66 556.5 66 556.5C68.3333 555.167 72.3 551.9 69.5 549.5C66.7 547.1 63.3333 530.833 62 523Z" fill="#FD9605"/>
<path d="M122 541.5L119.5 525L132 524L135 539.5L122 541.5Z" fill="#FFB181"/>
<path d="M135.5 535.5C131.1 541.1 123 540.167 119.5 539C117.1 545.4 118.5 553 119.5 556C131.667 557.167 157.4 557.6 163 550C168.6 542.4 147 537.167 135.5 535.5Z" fill="#FD9605"/>
<path d="M86 166V161C82.1667 155 78.6 142.3 95 139.5C99.8333 134.333 110.8 126.1 116 134.5C121.5 133.333 131.4 133.7 127 144.5C132.333 145.833 139.8 150.5 127 158.5V168C125.5 167.5 122.4 165.4 122 161C121.5 155.5 122.5 153.5 112 154C101.5 154.5 94.5 146 92.5 158.5C91.2969 166.019 90.0938 166.482 89.5437 166.093C90.1885 167.563 87.47 166.653 86 166Z" fill="#2A3541"/>
<path d="M101 432.5C99.4 426.9 57.5 371.5 63 360.5C68.5 349.5 126 362.5 148.5 362.5C144.167 390.167 132.5 449.4 132.5 453V520C128 523.333 118.5 527.5 116.5 517.5C114.5 507.5 110 485.667 108 476C96.8333 488.667 73.2 514.2 68 515C62.8 515.8 59.8333 509.333 59 506C84.5 438 103 439.5 101 432.5Z" fill="#2A3541"/>
</svg>
